<svg xmlns="http://www.w3.org/2000/svg" width="15" height="15" viewBox="0 0 15 15"><path fill="rgb(255,255,255)" fill-rule="evenodd" d="M5.672 11.238l2.066-2.355H0V7.117h7.776L5.672 4.762 6.8 3.5 10.82 8 6.8 12.5 5.67 11.238zM13.348 0c.435 0 .82.17 1.153.508.334.338.5.73.5 1.172v11.64c0 .443-.166.834-.5 1.172-.332.34-.717.508-1.152.508H1.898c-.434 0-.818-.17-1.15-.508-.334-.338-.5-.73-.5-1.172V10h1.65v3.32h11.45V1.68H1.898V5H.25V1.68c0-.443.166-.834.5-1.172C1.08.168 1.463 0 1.897 0h11.45z"/></svg>