<svg xmlns="http://www.w3.org/2000/svg" width="16" height="16" viewBox="0 0 16 16"><path fill="rgb(208,2,27)" fill-rule="evenodd" d="M8.788 8.788V3.98H7.212V8.79h1.576zm0 3.23v-1.614H7.212v1.615h1.576zM8 0c1.462 0 2.814.365 4.058 1.096 1.205.692 2.154 1.64 2.846 2.846C15.634 5.186 16 6.538 16 8c0 1.462-.365 2.814-1.096 4.058-.692 1.205-1.64 2.154-2.846 2.846C10.814 15.634 9.462 16 8 16c-1.462 0-2.814-.365-4.058-1.096-1.205-.705-2.154-1.66-2.846-2.866C.366 10.795 0 9.448 0 8c0-1.45.365-2.795 1.096-4.038.705-1.206 1.66-2.16 2.866-2.866C5.205.366 6.552 0 8 0z"/></svg>